<svg xmlns="http://www.w3.org/2000/svg" viewBox="0 0 512 512" width="512" height="512" fill="none">
  <path d="M 240.0 128.0 L 220.0 132.0 L 195.0 142.0 L 173.0 157.0 L 156.0 174.0 L 141.0 197.0 L 132.0 220.0 L 128.0 240.0 L 128.0 271.0 L 129.0 272.0 L 130.0 283.0 L 135.0 300.0 L 145.0 321.0 L 156.0 337.0 L 178.0 358.0 L 199.0 371.0 L 220.0 379.0 L 240.0 383.0 L 271.0 383.0 L 291.0 379.0 L 314.0 370.0 L 337.0 355.0 L 354.0 338.0 L 361.0 329.0 L 370.0 314.0 L 379.0 291.0 L 383.0 271.0 L 383.0 250.0 L 381.0 246.0 L 373.0 240.0 L 362.0 240.0 L 354.0 246.0 L 351.0 256.0 L 351.0 269.0 L 349.0 279.0 L 345.0 291.0 L 338.0 305.0 L 331.0 315.0 L 315.0 331.0 L 305.0 338.0 L 291.0 345.0 L 269.0 351.0 L 257.0 351.0 L 256.0 352.0 L 254.0 351.0 L 242.0 351.0 L 220.0 345.0 L 206.0 338.0 L 196.0 331.0 L 180.0 315.0 L 173.0 305.0 L 166.0 291.0 L 160.0 269.0 L 160.0 242.0 L 162.0 232.0 L 166.0 220.0 L 177.0 200.0 L 200.0 177.0 L 220.0 166.0 L 242.0 160.0 L 261.0 159.0 L 269.0 153.0 L 271.0 149.0 L 271.0 138.0 L 265.0 130.0 L 261.0 128.0 Z M 422.0 19.0 L 416.0 16.0 L 406.0 16.0 L 402.0 18.0 L 338.0 82.0 L 336.0 86.0 L 338.0 150.0 L 249.0 239.0 L 248.0 252.0 L 252.0 259.0 L 260.0 263.0 L 267.0 263.0 L 275.0 259.0 L 362.0 172.0 L 390.0 173.0 L 391.0 174.0 L 413.0 174.0 L 414.0 175.0 L 422.0 175.0 L 428.0 173.0 L 493.0 108.0 L 495.0 103.0 L 495.0 96.0 L 492.0 89.0 L 485.0 84.0 L 480.0 83.0 L 459.0 83.0 L 458.0 82.0 L 436.0 82.0 L 429.0 80.0 L 427.0 27.0 Z M 396.0 70.0 L 397.0 71.0 L 398.0 100.0 L 402.0 108.0 L 406.0 111.0 L 413.0 113.0 L 435.0 113.0 L 440.0 115.0 L 413.0 142.0 L 371.0 141.0 L 370.0 140.0 L 370.0 131.0 L 369.0 130.0 L 368.0 98.0 Z M 234.0 16.0 L 233.0 17.0 L 212.0 19.0 L 187.0 25.0 L 164.0 33.0 L 139.0 45.0 L 121.0 56.0 L 100.0 72.0 L 72.0 100.0 L 56.0 121.0 L 45.0 139.0 L 33.0 164.0 L 25.0 187.0 L 19.0 212.0 L 17.0 233.0 L 16.0 234.0 L 16.0 277.0 L 17.0 278.0 L 19.0 299.0 L 25.0 324.0 L 33.0 347.0 L 45.0 372.0 L 56.0 390.0 L 72.0 411.0 L 100.0 439.0 L 121.0 455.0 L 139.0 466.0 L 164.0 478.0 L 187.0 486.0 L 212.0 492.0 L 233.0 494.0 L 234.0 495.0 L 277.0 495.0 L 278.0 494.0 L 299.0 492.0 L 317.0 488.0 L 339.0 481.0 L 356.0 474.0 L 372.0 466.0 L 397.0 450.0 L 411.0 439.0 L 431.0 420.0 L 455.0 390.0 L 466.0 372.0 L 478.0 347.0 L 486.0 324.0 L 492.0 299.0 L 494.0 278.0 L 495.0 277.0 L 495.0 250.0 L 493.0 246.0 L 485.0 240.0 L 474.0 240.0 L 466.0 246.0 L 463.0 256.0 L 463.0 275.0 L 462.0 276.0 L 461.0 290.0 L 456.0 312.0 L 450.0 330.0 L 435.0 361.0 L 415.0 389.0 L 397.0 408.0 L 379.0 423.0 L 354.0 439.0 L 335.0 448.0 L 312.0 456.0 L 290.0 461.0 L 276.0 462.0 L 275.0 463.0 L 257.0 463.0 L 255.0 464.0 L 254.0 463.0 L 236.0 463.0 L 235.0 462.0 L 221.0 461.0 L 199.0 456.0 L 167.0 444.0 L 139.0 428.0 L 114.0 408.0 L 95.0 388.0 L 76.0 361.0 L 63.0 335.0 L 55.0 312.0 L 50.0 290.0 L 49.0 276.0 L 48.0 275.0 L 48.0 236.0 L 49.0 235.0 L 50.0 221.0 L 55.0 199.0 L 67.0 167.0 L 83.0 139.0 L 103.0 114.0 L 114.0 103.0 L 132.0 88.0 L 157.0 72.0 L 181.0 61.0 L 199.0 55.0 L 221.0 50.0 L 235.0 49.0 L 236.0 48.0 L 261.0 47.0 L 269.0 41.0 L 271.0 37.0 L 271.0 26.0 L 265.0 18.0 L 261.0 16.0 Z" fill="currentColor" fill-rule="evenodd" clip-rule="evenodd"/>
</svg>
