<svg xmlns="http://www.w3.org/2000/svg" viewBox="0 0 512 512" role="img" aria-label="avg earned diff">
  <path fill="currentColor" fill-rule="evenodd" clip-rule="evenodd" d="M 312.00 0.00 L 305.00 0.00 L 291.00 10.00 L 255.00 46.00 L 242.00 63.00 L 229.00 83.00 L 214.00 112.00 L 203.00 143.00 L 202.00 151.00 L 199.00 160.00 L 197.00 177.00 L 196.00 178.00 L 194.00 205.00 L 193.00 206.00 L 193.00 223.00 L 192.00 224.00 L 192.00 253.00 L 191.00 254.00 L 185.00 253.00 L 177.00 249.00 L 170.00 244.00 L 158.00 231.00 L 154.00 225.00 L 145.00 206.00 L 141.00 194.00 L 138.00 178.00 L 136.00 174.00 L 132.00 171.00 L 126.00 170.00 L 115.00 176.00 L 106.00 184.00 L 98.00 193.00 L 88.00 208.00 L 78.00 229.00 L 71.00 251.00 L 68.00 269.00 L 67.00 270.00 L 66.00 284.00 L 65.00 285.00 L 65.00 297.00 L 64.00 298.00 L 64.00 338.00 L 65.00 339.00 L 65.00 345.00 L 67.00 352.00 L 67.00 358.00 L 70.00 366.00 L 72.00 377.00 L 78.00 393.00 L 87.00 412.00 L 96.00 427.00 L 110.00 445.00 L 130.00 465.00 L 148.00 479.00 L 163.00 488.00 L 182.00 497.00 L 198.00 503.00 L 209.00 505.00 L 217.00 508.00 L 223.00 508.00 L 224.00 509.00 L 236.00 510.00 L 237.00 511.00 L 274.00 511.00 L 275.00 510.00 L 281.00 510.00 L 288.00 508.00 L 294.00 508.00 L 302.00 505.00 L 313.00 503.00 L 329.00 497.00 L 348.00 488.00 L 363.00 479.00 L 381.00 465.00 L 401.00 445.00 L 415.00 427.00 L 424.00 412.00 L 433.00 393.00 L 439.00 377.00 L 441.00 366.00 L 444.00 358.00 L 444.00 352.00 L 445.00 351.00 L 446.00 339.00 L 447.00 338.00 L 447.00 302.00 L 446.00 301.00 L 445.00 283.00 L 444.00 282.00 L 442.00 266.00 L 432.00 231.00 L 426.00 216.00 L 408.00 182.00 L 386.00 149.00 L 351.00 102.00 L 336.00 77.00 L 328.00 59.00 L 322.00 39.00 L 321.00 28.00 L 320.00 27.00 L 319.00 7.00 L 317.00 3.00 Z M 270.00 310.00 L 279.00 331.00 L 302.00 364.00 L 312.00 383.00 L 316.00 395.00 L 318.00 409.00 L 319.00 410.00 L 319.00 420.00 L 320.00 421.00 L 319.00 424.00 L 319.00 434.00 L 315.00 448.00 L 309.00 460.00 L 303.00 468.00 L 291.00 479.00 L 281.00 485.00 L 273.00 488.00 L 265.00 489.00 L 264.00 490.00 L 247.00 490.00 L 235.00 487.00 L 223.00 481.00 L 215.00 475.00 L 202.00 460.00 L 196.00 448.00 L 192.00 434.00 L 192.00 424.00 L 191.00 423.00 L 192.00 406.00 L 193.00 405.00 L 193.00 400.00 L 195.00 392.00 L 198.00 385.00 L 207.00 398.00 L 220.00 407.00 L 226.00 409.00 L 237.00 409.00 L 243.00 404.00 L 244.00 401.00 L 245.00 368.00 L 246.00 367.00 L 246.00 360.00 L 247.00 359.00 L 248.00 350.00 L 251.00 343.00 L 251.00 340.00 L 258.00 326.00 L 263.00 318.00 Z M 299.00 32.00 L 308.00 66.00 L 321.00 94.00 L 339.00 122.00 L 369.00 162.00 L 388.00 190.00 L 400.00 211.00 L 412.00 238.00 L 420.00 264.00 L 420.00 268.00 L 423.00 279.00 L 423.00 285.00 L 424.00 286.00 L 425.00 304.00 L 426.00 305.00 L 426.00 334.00 L 425.00 335.00 L 425.00 343.00 L 424.00 344.00 L 424.00 349.00 L 423.00 350.00 L 421.00 363.00 L 410.00 393.00 L 398.00 414.00 L 384.00 432.00 L 369.00 447.00 L 354.00 459.00 L 340.00 468.00 L 325.00 475.00 L 324.00 474.00 L 328.00 469.00 L 336.00 452.00 L 340.00 436.00 L 341.00 417.00 L 340.00 416.00 L 340.00 407.00 L 339.00 406.00 L 339.00 400.00 L 336.00 387.00 L 325.00 361.00 L 304.00 329.00 L 301.00 326.00 L 292.00 309.00 L 289.00 300.00 L 287.00 282.00 L 283.00 278.00 L 280.00 277.00 L 272.00 278.00 L 249.00 301.00 L 239.00 316.00 L 233.00 328.00 L 232.00 333.00 L 229.00 339.00 L 226.00 356.00 L 225.00 357.00 L 223.00 381.00 L 222.00 382.00 L 217.00 374.00 L 212.00 356.00 L 208.00 352.00 L 205.00 351.00 L 198.00 352.00 L 192.00 356.00 L 185.00 364.00 L 179.00 374.00 L 172.00 397.00 L 171.00 414.00 L 170.00 415.00 L 170.00 427.00 L 171.00 428.00 L 171.00 436.00 L 174.00 449.00 L 183.00 469.00 L 187.00 474.00 L 185.00 475.00 L 171.00 468.00 L 157.00 459.00 L 142.00 447.00 L 127.00 432.00 L 113.00 414.00 L 98.00 386.00 L 89.00 359.00 L 87.00 344.00 L 86.00 343.00 L 86.00 335.00 L 85.00 334.00 L 86.00 287.00 L 87.00 286.00 L 89.00 268.00 L 91.00 263.00 L 93.00 251.00 L 103.00 225.00 L 110.00 213.00 L 120.00 201.00 L 122.00 203.00 L 128.00 221.00 L 137.00 238.00 L 145.00 249.00 L 157.00 261.00 L 171.00 270.00 L 181.00 274.00 L 189.00 275.00 L 190.00 276.00 L 203.00 277.00 L 207.00 276.00 L 212.00 271.00 L 213.00 267.00 L 214.00 208.00 L 215.00 207.00 L 216.00 188.00 L 217.00 187.00 L 217.00 181.00 L 218.00 180.00 L 221.00 159.00 L 229.00 132.00 L 245.00 98.00 L 257.00 79.00 L 273.00 58.00 Z"/>
</svg>
