<svg xmlns="http://www.w3.org/2000/svg" viewBox="0 0 512 512" role="img" aria-label="avg missing diff">
  <path fill="currentColor" fill-rule="evenodd" clip-rule="evenodd" d="M 330.00 475.00 L 323.00 468.00 L 314.00 465.00 L 292.00 469.00 L 286.00 472.00 L 281.00 477.00 L 278.00 484.00 L 278.00 494.00 L 279.00 497.00 L 285.00 505.00 L 293.00 509.00 L 304.00 509.00 L 320.00 505.00 L 324.00 503.00 L 329.00 498.00 L 332.00 492.00 L 333.00 484.00 Z M 398.00 437.00 L 389.00 433.00 L 382.00 433.00 L 376.00 435.00 L 360.00 445.00 L 355.00 451.00 L 353.00 456.00 L 353.00 466.00 L 357.00 474.00 L 361.00 478.00 L 367.00 481.00 L 373.00 482.00 L 374.00 481.00 L 382.00 480.00 L 397.00 471.00 L 403.00 465.00 L 406.00 457.00 L 405.00 447.00 L 402.00 441.00 Z M 453.00 380.00 L 446.00 378.00 L 441.00 378.00 L 433.00 381.00 L 428.00 385.00 L 417.00 399.00 L 414.00 408.00 L 415.00 416.00 L 417.00 421.00 L 426.00 429.00 L 429.00 430.00 L 441.00 430.00 L 448.00 426.00 L 460.00 412.00 L 464.00 404.00 L 464.00 394.00 L 460.00 386.00 Z M 483.00 307.00 L 473.00 308.00 L 469.00 310.00 L 463.00 316.00 L 455.00 337.00 L 455.00 345.00 L 459.00 354.00 L 465.00 359.00 L 475.00 362.00 L 484.00 360.00 L 491.00 355.00 L 497.00 343.00 L 501.00 329.00 L 500.00 321.00 L 496.00 314.00 L 491.00 310.00 Z M 486.00 228.00 L 479.00 231.00 L 472.00 239.00 L 470.00 246.00 L 470.00 263.00 L 471.00 264.00 L 471.00 269.00 L 478.00 279.00 L 487.00 283.00 L 495.00 283.00 L 505.00 278.00 L 510.00 271.00 L 511.00 268.00 L 511.00 243.00 L 506.00 234.00 L 502.00 231.00 L 495.00 228.00 Z M 462.00 153.00 L 457.00 158.00 L 454.00 165.00 L 454.00 175.00 L 458.00 187.00 L 463.00 197.00 L 468.00 201.00 L 475.00 204.00 L 486.00 203.00 L 494.00 198.00 L 499.00 189.00 L 499.00 178.00 L 496.00 169.00 L 491.00 158.00 L 486.00 153.00 L 480.00 150.00 L 469.00 150.00 Z M 233.00 94.00 L 229.00 98.00 L 226.00 106.00 L 226.00 273.00 L 228.00 275.00 L 286.00 304.00 L 288.00 306.00 L 315.00 319.00 L 317.00 321.00 L 344.00 334.00 L 346.00 336.00 L 373.00 349.00 L 377.00 352.00 L 383.00 354.00 L 388.00 354.00 L 394.00 352.00 L 398.00 349.00 L 402.00 341.00 L 402.00 333.00 L 399.00 327.00 L 396.00 324.00 L 259.00 253.00 L 259.00 103.00 L 256.00 97.00 L 249.00 92.00 L 240.00 91.00 Z M 421.00 17.00 L 417.00 18.00 L 398.00 45.00 L 388.00 38.00 L 370.00 29.00 L 368.00 27.00 L 342.00 16.00 L 323.00 10.00 L 306.00 6.00 L 296.00 5.00 L 295.00 4.00 L 279.00 3.00 L 278.00 2.00 L 261.00 2.00 L 260.00 1.00 L 258.00 2.00 L 234.00 2.00 L 233.00 3.00 L 217.00 4.00 L 216.00 5.00 L 211.00 5.00 L 206.00 7.00 L 192.00 9.00 L 152.00 23.00 L 128.00 35.00 L 112.00 45.00 L 84.00 67.00 L 64.00 87.00 L 45.00 111.00 L 31.00 134.00 L 21.00 154.00 L 9.00 187.00 L 6.00 203.00 L 4.00 208.00 L 2.00 226.00 L 1.00 227.00 L 1.00 237.00 L 0.00 238.00 L 0.00 277.00 L 1.00 278.00 L 1.00 287.00 L 2.00 288.00 L 3.00 301.00 L 6.00 311.00 L 7.00 320.00 L 17.00 351.00 L 22.00 361.00 L 22.00 363.00 L 38.00 393.00 L 48.00 408.00 L 68.00 432.00 L 90.00 453.00 L 108.00 467.00 L 132.00 482.00 L 148.00 490.00 L 150.00 490.00 L 157.00 494.00 L 167.00 497.00 L 170.00 499.00 L 182.00 503.00 L 193.00 505.00 L 197.00 507.00 L 213.00 509.00 L 214.00 510.00 L 222.00 508.00 L 226.00 506.00 L 230.00 502.00 L 234.00 494.00 L 234.00 484.00 L 230.00 476.00 L 224.00 471.00 L 192.00 463.00 L 168.00 454.00 L 142.00 440.00 L 116.00 421.00 L 91.00 396.00 L 78.00 379.00 L 67.00 361.00 L 56.00 338.00 L 48.00 314.00 L 47.00 306.00 L 44.00 296.00 L 44.00 291.00 L 43.00 290.00 L 43.00 283.00 L 42.00 282.00 L 42.00 275.00 L 41.00 274.00 L 41.00 240.00 L 42.00 239.00 L 42.00 230.00 L 43.00 229.00 L 43.00 223.00 L 44.00 222.00 L 45.00 212.00 L 48.00 200.00 L 55.00 179.00 L 69.00 150.00 L 80.00 133.00 L 90.00 120.00 L 108.00 101.00 L 131.00 82.00 L 148.00 71.00 L 175.00 58.00 L 195.00 51.00 L 221.00 45.00 L 228.00 45.00 L 229.00 44.00 L 236.00 44.00 L 237.00 43.00 L 273.00 43.00 L 274.00 44.00 L 284.00 44.00 L 290.00 46.00 L 305.00 48.00 L 331.00 56.00 L 361.00 70.00 L 371.00 76.00 L 374.00 80.00 L 357.00 104.00 L 357.00 110.00 L 359.00 112.00 L 373.00 112.00 L 374.00 111.00 L 384.00 111.00 L 385.00 110.00 L 396.00 110.00 L 397.00 109.00 L 437.00 106.00 L 443.00 102.00 L 445.00 98.00 L 445.00 91.00 L 439.00 72.00 L 436.00 58.00 L 434.00 54.00 L 431.00 40.00 L 429.00 36.00 L 428.00 29.00 L 425.00 20.00 Z"/>
</svg>
