<svg xmlns="http://www.w3.org/2000/svg" viewBox="0 0 512 512" role="img" aria-label="completion">
  <path fill="currentColor" fill-rule="evenodd" clip-rule="evenodd" d="M 6.00 39.00 L 2.00 43.00 L 0.00 47.00 L 0.00 77.00 L 1.00 78.00 L 2.00 97.00 L 3.00 98.00 L 3.00 104.00 L 4.00 105.00 L 7.00 127.00 L 9.00 132.00 L 12.00 148.00 L 16.00 158.00 L 16.00 161.00 L 26.00 188.00 L 39.00 214.00 L 48.00 229.00 L 68.00 255.00 L 85.00 272.00 L 99.00 283.00 L 110.00 290.00 L 129.00 299.00 L 149.00 305.00 L 168.00 307.00 L 176.00 316.00 L 200.00 335.00 L 200.00 400.00 L 199.00 401.00 L 170.00 401.00 L 169.00 402.00 L 160.00 403.00 L 148.00 408.00 L 136.00 417.00 L 127.00 429.00 L 122.00 441.00 L 121.00 449.00 L 120.00 450.00 L 120.00 481.00 L 119.00 482.00 L 114.00 482.00 L 110.00 484.00 L 107.00 487.00 L 104.00 493.00 L 104.00 500.00 L 107.00 506.00 L 114.00 511.00 L 397.00 511.00 L 401.00 509.00 L 404.00 506.00 L 407.00 500.00 L 407.00 493.00 L 404.00 487.00 L 401.00 484.00 L 397.00 482.00 L 392.00 482.00 L 391.00 481.00 L 391.00 450.00 L 387.00 435.00 L 380.00 423.00 L 369.00 412.00 L 357.00 405.00 L 341.00 401.00 L 312.00 401.00 L 311.00 400.00 L 311.00 335.00 L 327.00 323.00 L 343.00 307.00 L 362.00 305.00 L 382.00 299.00 L 401.00 290.00 L 412.00 283.00 L 426.00 272.00 L 443.00 255.00 L 461.00 232.00 L 472.00 214.00 L 485.00 188.00 L 499.00 148.00 L 505.00 122.00 L 508.00 98.00 L 509.00 97.00 L 510.00 78.00 L 511.00 77.00 L 511.00 47.00 L 509.00 43.00 L 505.00 39.00 L 501.00 37.00 L 432.00 37.00 L 431.00 36.00 L 431.00 11.00 L 428.00 5.00 L 421.00 0.00 L 90.00 0.00 L 83.00 5.00 L 80.00 11.00 L 80.00 36.00 L 79.00 37.00 L 10.00 37.00 Z M 150.00 452.00 L 153.00 444.00 L 160.00 436.00 L 165.00 433.00 L 172.00 431.00 L 339.00 431.00 L 346.00 433.00 L 351.00 436.00 L 356.00 441.00 L 360.00 448.00 L 361.00 452.00 L 361.00 481.00 L 360.00 482.00 L 151.00 482.00 L 150.00 481.00 Z M 231.00 348.00 L 235.00 348.00 L 241.00 350.00 L 251.00 350.00 L 252.00 351.00 L 270.00 350.00 L 276.00 348.00 L 280.00 348.00 L 281.00 349.00 L 281.00 400.00 L 280.00 401.00 L 231.00 401.00 L 230.00 400.00 L 230.00 349.00 Z M 480.00 66.00 L 481.00 67.00 L 480.00 89.00 L 479.00 90.00 L 478.00 104.00 L 477.00 105.00 L 474.00 125.00 L 462.00 165.00 L 452.00 188.00 L 437.00 214.00 L 417.00 239.00 L 398.00 256.00 L 384.00 265.00 L 372.00 270.00 L 371.00 269.00 L 379.00 256.00 L 391.00 231.00 L 399.00 211.00 L 412.00 170.00 L 416.00 154.00 L 416.00 150.00 L 419.00 141.00 L 419.00 136.00 L 420.00 135.00 L 421.00 125.00 L 424.00 113.00 L 429.00 67.00 L 430.00 66.00 Z M 31.00 66.00 L 81.00 66.00 L 82.00 67.00 L 87.00 113.00 L 88.00 114.00 L 88.00 119.00 L 92.00 136.00 L 92.00 141.00 L 95.00 150.00 L 95.00 154.00 L 99.00 170.00 L 112.00 211.00 L 120.00 231.00 L 126.00 242.00 L 126.00 244.00 L 140.00 269.00 L 139.00 270.00 L 127.00 265.00 L 113.00 256.00 L 94.00 239.00 L 74.00 214.00 L 59.00 188.00 L 49.00 165.00 L 37.00 125.00 L 34.00 105.00 L 33.00 104.00 L 32.00 90.00 L 31.00 89.00 L 31.00 78.00 L 30.00 77.00 L 30.00 67.00 Z M 111.00 29.00 L 400.00 29.00 L 401.00 30.00 L 400.00 61.00 L 399.00 62.00 L 398.00 82.00 L 397.00 83.00 L 397.00 91.00 L 396.00 92.00 L 394.00 112.00 L 393.00 113.00 L 388.00 143.00 L 382.00 167.00 L 377.00 180.00 L 377.00 183.00 L 363.00 220.00 L 358.00 229.00 L 358.00 231.00 L 342.00 260.00 L 325.00 283.00 L 309.00 299.00 L 300.00 306.00 L 284.00 315.00 L 273.00 319.00 L 263.00 320.00 L 262.00 321.00 L 249.00 321.00 L 248.00 320.00 L 238.00 319.00 L 219.00 311.00 L 202.00 299.00 L 186.00 283.00 L 171.00 263.00 L 158.00 241.00 L 148.00 220.00 L 134.00 183.00 L 134.00 180.00 L 129.00 167.00 L 123.00 143.00 L 120.00 124.00 L 119.00 123.00 L 116.00 99.00 L 115.00 98.00 L 115.00 92.00 L 114.00 91.00 L 113.00 72.00 L 112.00 71.00 L 112.00 62.00 L 111.00 61.00 L 111.00 43.00 L 110.00 42.00 L 110.00 30.00 Z"/>
</svg>
