<svg xmlns="http://www.w3.org/2000/svg" viewBox="0 0 512 512" width="512" height="512" fill="none">
  <path d="M 70.0 39.0 L 58.0 52.0 L 47.0 71.0 L 42.0 84.0 L 38.0 104.0 L 38.0 119.0 L 39.0 120.0 L 39.0 128.0 L 42.0 144.0 L 49.0 168.0 L 53.0 176.0 L 44.0 202.0 L 40.0 222.0 L 39.0 238.0 L 38.0 239.0 L 38.0 272.0 L 39.0 273.0 L 39.0 282.0 L 40.0 283.0 L 40.0 289.0 L 44.0 309.0 L 54.0 339.0 L 71.0 372.0 L 92.0 400.0 L 111.0 419.0 L 130.0 434.0 L 144.0 443.0 L 165.0 454.0 L 195.0 465.0 L 216.0 470.0 L 239.0 472.0 L 240.0 473.0 L 271.0 473.0 L 272.0 472.0 L 289.0 471.0 L 316.0 465.0 L 334.0 459.0 L 367.0 443.0 L 385.0 431.0 L 400.0 419.0 L 418.0 401.0 L 428.0 389.0 L 447.0 360.0 L 459.0 334.0 L 465.0 316.0 L 471.0 289.0 L 472.0 272.0 L 473.0 271.0 L 472.0 230.0 L 465.0 195.0 L 458.0 176.0 L 462.0 168.0 L 469.0 144.0 L 472.0 128.0 L 472.0 120.0 L 473.0 119.0 L 473.0 104.0 L 470.0 88.0 L 465.0 73.0 L 460.0 63.0 L 450.0 48.0 L 441.0 39.0 L 431.0 38.0 L 427.0 40.0 L 422.0 47.0 L 421.0 60.0 L 415.0 72.0 L 406.0 81.0 L 396.0 86.0 L 392.0 86.0 L 382.0 78.0 L 356.0 62.0 L 334.0 52.0 L 316.0 46.0 L 300.0 42.0 L 282.0 40.0 L 281.0 39.0 L 272.0 39.0 L 271.0 38.0 L 230.0 39.0 L 195.0 46.0 L 172.0 54.0 L 141.0 70.0 L 119.0 86.0 L 115.0 86.0 L 105.0 81.0 L 94.0 69.0 L 90.0 60.0 L 89.0 47.0 L 87.0 43.0 L 80.0 38.0 Z M 71.0 82.0 L 85.0 98.0 L 95.0 105.0 L 108.0 111.0 L 120.0 114.0 L 127.0 113.0 L 150.0 95.0 L 165.0 86.0 L 184.0 77.0 L 217.0 67.0 L 236.0 65.0 L 237.0 64.0 L 254.0 64.0 L 255.0 63.0 L 257.0 64.0 L 274.0 64.0 L 275.0 65.0 L 294.0 67.0 L 313.0 72.0 L 346.0 86.0 L 361.0 95.0 L 381.0 111.0 L 388.0 114.0 L 400.0 112.0 L 416.0 105.0 L 427.0 97.0 L 440.0 82.0 L 443.0 87.0 L 447.0 102.0 L 447.0 121.0 L 441.0 149.0 L 435.0 166.0 L 432.0 171.0 L 432.0 181.0 L 440.0 201.0 L 446.0 229.0 L 446.0 236.0 L 447.0 237.0 L 447.0 274.0 L 446.0 275.0 L 446.0 282.0 L 439.0 313.0 L 431.0 334.0 L 418.0 358.0 L 399.0 383.0 L 376.0 405.0 L 364.0 414.0 L 346.0 425.0 L 329.0 433.0 L 306.0 441.0 L 288.0 445.0 L 274.0 446.0 L 273.0 447.0 L 238.0 447.0 L 237.0 446.0 L 223.0 445.0 L 205.0 441.0 L 187.0 435.0 L 165.0 425.0 L 147.0 414.0 L 128.0 399.0 L 106.0 376.0 L 90.0 353.0 L 80.0 334.0 L 74.0 319.0 L 67.0 294.0 L 65.0 275.0 L 64.0 274.0 L 64.0 257.0 L 63.0 256.0 L 64.0 254.0 L 64.0 237.0 L 65.0 236.0 L 66.0 222.0 L 71.0 201.0 L 79.0 181.0 L 79.0 171.0 L 74.0 161.0 L 69.0 146.0 L 64.0 121.0 L 64.0 102.0 L 68.0 87.0 Z M 392.0 207.0 L 387.0 203.0 L 378.0 203.0 L 351.0 222.0 L 334.0 232.0 L 310.0 244.0 L 290.0 252.0 L 285.0 258.0 L 285.0 265.0 L 291.0 281.0 L 299.0 292.0 L 306.0 298.0 L 317.0 304.0 L 332.0 308.0 L 344.0 308.0 L 345.0 309.0 L 355.0 308.0 L 370.0 301.0 L 376.0 295.0 L 382.0 286.0 L 386.0 277.0 L 391.0 259.0 L 392.0 246.0 L 393.0 245.0 L 393.0 232.0 L 394.0 231.0 L 394.0 213.0 Z M 119.0 207.0 L 117.0 213.0 L 117.0 231.0 L 118.0 232.0 L 118.0 245.0 L 119.0 246.0 L 120.0 259.0 L 127.0 282.0 L 132.0 291.0 L 141.0 301.0 L 156.0 308.0 L 164.0 308.0 L 165.0 309.0 L 167.0 308.0 L 179.0 308.0 L 194.0 304.0 L 205.0 298.0 L 213.0 291.0 L 220.0 281.0 L 226.0 265.0 L 226.0 258.0 L 221.0 252.0 L 199.0 243.0 L 177.0 232.0 L 157.0 220.0 L 133.0 203.0 L 124.0 203.0 Z" fill="currentColor" fill-rule="evenodd" clip-rule="evenodd"/>
</svg>
