<svg xmlns="http://www.w3.org/2000/svg" viewBox="0 0 512 512" role="img" aria-label="missing">
  <path fill="currentColor" fill-rule="evenodd" clip-rule="evenodd" d="M 509.00 68.00 L 504.00 63.00 L 499.00 61.00 L 491.00 62.00 L 484.00 67.00 L 481.00 74.00 L 480.00 82.00 L 467.00 131.00 L 467.00 135.00 L 460.00 163.00 L 457.00 166.00 L 452.00 164.00 L 428.00 64.00 L 425.00 57.00 L 419.00 52.00 L 410.00 51.00 L 405.00 53.00 L 400.00 58.00 L 398.00 63.00 L 398.00 70.00 L 409.00 111.00 L 409.00 115.00 L 423.00 171.00 L 414.00 176.00 L 399.00 191.00 L 360.00 252.00 L 355.00 232.00 L 349.00 216.00 L 338.00 195.00 L 322.00 173.00 L 304.00 155.00 L 287.00 142.00 L 272.00 133.00 L 250.00 123.00 L 226.00 116.00 L 210.00 114.00 L 209.00 113.00 L 198.00 113.00 L 197.00 112.00 L 163.00 113.00 L 162.00 114.00 L 156.00 114.00 L 155.00 115.00 L 138.00 118.00 L 118.00 125.00 L 98.00 135.00 L 80.00 147.00 L 57.00 168.00 L 44.00 184.00 L 33.00 201.00 L 25.00 217.00 L 17.00 240.00 L 14.00 257.00 L 13.00 258.00 L 12.00 278.00 L 11.00 279.00 L 13.00 309.00 L 14.00 310.00 L 17.00 327.00 L 21.00 339.00 L 30.00 359.00 L 36.00 368.00 L 36.00 370.00 L 26.00 381.00 L 17.00 394.00 L 6.00 417.00 L 0.00 439.00 L 0.00 450.00 L 5.00 457.00 L 12.00 460.00 L 316.00 460.00 L 317.00 459.00 L 326.00 459.00 L 327.00 458.00 L 338.00 457.00 L 359.00 451.00 L 381.00 441.00 L 398.00 430.00 L 418.00 412.00 L 435.00 390.00 L 459.00 344.00 L 461.00 342.00 L 469.00 325.00 L 471.00 323.00 L 478.00 308.00 L 480.00 306.00 L 508.00 251.00 L 511.00 238.00 L 511.00 217.00 L 510.00 216.00 L 509.00 208.00 L 501.00 191.00 L 487.00 177.00 L 510.00 85.00 L 511.00 72.00 Z M 479.00 213.00 L 482.00 226.00 L 481.00 236.00 L 479.00 243.00 L 412.00 370.00 L 399.00 388.00 L 385.00 402.00 L 373.00 411.00 L 354.00 421.00 L 331.00 428.00 L 317.00 429.00 L 316.00 430.00 L 35.00 430.00 L 34.00 429.00 L 38.00 418.00 L 47.00 403.00 L 66.00 383.00 L 79.00 374.00 L 89.00 369.00 L 103.00 364.00 L 111.00 363.00 L 112.00 362.00 L 118.00 362.00 L 119.00 361.00 L 275.00 361.00 L 276.00 360.00 L 289.00 359.00 L 311.00 352.00 L 321.00 347.00 L 333.00 339.00 L 353.00 319.00 L 418.00 218.00 L 419.00 215.00 L 423.00 209.00 L 432.00 200.00 L 437.00 197.00 L 444.00 195.00 L 460.00 196.00 L 468.00 200.00 L 476.00 208.00 Z M 322.00 229.00 L 328.00 246.00 L 331.00 259.00 L 332.00 279.00 L 333.00 280.00 L 332.00 283.00 L 332.00 297.00 L 315.00 315.00 L 308.00 320.00 L 296.00 326.00 L 275.00 331.00 L 238.00 331.00 L 237.00 330.00 L 240.00 317.00 L 240.00 311.00 L 241.00 310.00 L 241.00 281.00 L 240.00 280.00 L 238.00 264.00 L 234.00 252.00 L 224.00 234.00 L 214.00 223.00 L 197.00 212.00 L 180.00 207.00 L 159.00 207.00 L 158.00 208.00 L 150.00 209.00 L 136.00 215.00 L 125.00 223.00 L 117.00 232.00 L 110.00 244.00 L 105.00 263.00 L 105.00 281.00 L 108.00 288.00 L 115.00 293.00 L 122.00 294.00 L 128.00 292.00 L 133.00 287.00 L 135.00 283.00 L 135.00 264.00 L 137.00 257.00 L 141.00 250.00 L 148.00 243.00 L 157.00 238.00 L 165.00 237.00 L 166.00 236.00 L 178.00 237.00 L 188.00 241.00 L 195.00 246.00 L 202.00 255.00 L 208.00 268.00 L 210.00 276.00 L 211.00 292.00 L 212.00 293.00 L 211.00 309.00 L 210.00 310.00 L 210.00 315.00 L 208.00 323.00 L 204.00 331.00 L 120.00 331.00 L 119.00 332.00 L 111.00 332.00 L 86.00 338.00 L 76.00 342.00 L 62.00 350.00 L 60.00 350.00 L 51.00 333.00 L 50.00 328.00 L 48.00 325.00 L 42.00 299.00 L 42.00 288.00 L 41.00 287.00 L 42.00 266.00 L 43.00 265.00 L 43.00 259.00 L 48.00 239.00 L 60.00 213.00 L 68.00 201.00 L 78.00 189.00 L 93.00 175.00 L 115.00 160.00 L 137.00 150.00 L 166.00 143.00 L 199.00 142.00 L 200.00 143.00 L 208.00 143.00 L 209.00 144.00 L 219.00 145.00 L 231.00 148.00 L 247.00 154.00 L 264.00 163.00 L 281.00 175.00 L 305.00 200.00 L 315.00 215.00 Z"/>
</svg>
