<svg xmlns="http://www.w3.org/2000/svg" viewBox="0 0 512 512" role="img" aria-label="not played">
  <path fill="currentColor" fill-rule="evenodd" clip-rule="evenodd" d="M 13.00 6.00 L 4.00 16.00 L 0.00 26.00 L 0.00 40.00 L 5.00 52.00 L 208.00 256.00 L 9.00 455.00 L 3.00 463.00 L 0.00 472.00 L 0.00 486.00 L 6.00 499.00 L 12.00 505.00 L 24.00 511.00 L 41.00 511.00 L 52.00 506.00 L 256.00 303.00 L 459.00 506.00 L 470.00 511.00 L 487.00 511.00 L 499.00 505.00 L 507.00 496.00 L 511.00 486.00 L 511.00 472.00 L 510.00 468.00 L 503.00 456.00 L 303.00 255.00 L 506.00 52.00 L 511.00 40.00 L 511.00 26.00 L 505.00 13.00 L 495.00 4.00 L 483.00 0.00 L 473.00 0.00 L 460.00 5.00 L 255.00 208.00 L 56.00 9.00 L 51.00 5.00 L 38.00 0.00 L 23.00 1.00 Z"/>
</svg>
