<svg xmlns="http://www.w3.org/2000/svg" viewBox="0 0 512 512" role="img" aria-label="pb coverage">
  <path fill="currentColor" fill-rule="evenodd" clip-rule="evenodd" d="M 282.00 251.00 L 274.00 259.00 L 266.00 271.00 L 261.00 284.00 L 260.00 293.00 L 259.00 294.00 L 259.00 309.00 L 260.00 310.00 L 261.00 319.00 L 267.00 334.00 L 274.00 344.00 L 282.00 352.00 L 292.00 359.00 L 310.00 366.00 L 334.00 367.00 L 335.00 366.00 L 343.00 365.00 L 350.00 362.00 L 422.00 434.00 L 429.00 438.00 L 437.00 439.00 L 438.00 440.00 L 439.00 439.00 L 445.00 439.00 L 453.00 435.00 L 458.00 430.00 L 462.00 422.00 L 463.00 413.00 L 461.00 405.00 L 458.00 400.00 L 385.00 327.00 L 390.00 312.00 L 390.00 291.00 L 386.00 277.00 L 377.00 261.00 L 366.00 250.00 L 359.00 245.00 L 349.00 240.00 L 334.00 236.00 L 316.00 236.00 L 303.00 239.00 L 292.00 244.00 Z M 377.00 342.00 L 446.00 411.00 L 447.00 418.00 L 444.00 422.00 L 440.00 424.00 L 434.00 423.00 L 365.00 354.00 Z M 322.00 251.00 L 335.00 252.00 L 346.00 256.00 L 354.00 261.00 L 365.00 272.00 L 369.00 278.00 L 373.00 287.00 L 374.00 296.00 L 375.00 297.00 L 374.00 312.00 L 368.00 326.00 L 363.00 333.00 L 356.00 340.00 L 349.00 345.00 L 338.00 350.00 L 328.00 351.00 L 327.00 352.00 L 311.00 350.00 L 294.00 341.00 L 285.00 332.00 L 281.00 326.00 L 275.00 311.00 L 275.00 293.00 L 279.00 281.00 L 284.00 273.00 L 290.00 266.00 L 302.00 257.00 L 312.00 253.00 L 321.00 252.00 Z M 320.00 269.00 L 317.00 273.00 L 318.00 280.00 L 321.00 283.00 L 330.00 284.00 L 334.00 286.00 L 340.00 292.00 L 342.00 296.00 L 343.00 305.00 L 347.00 309.00 L 354.00 309.00 L 358.00 305.00 L 358.00 294.00 L 356.00 288.00 L 351.00 280.00 L 346.00 275.00 L 335.00 269.00 L 331.00 268.00 L 322.00 268.00 Z M 32.00 125.00 L 32.00 458.00 L 35.00 462.00 L 37.00 463.00 L 44.00 462.00 L 183.00 392.00 L 326.00 463.00 L 332.00 462.00 L 386.00 435.00 L 390.00 430.00 L 390.00 426.00 L 385.00 420.00 L 379.00 420.00 L 336.00 442.00 L 335.00 441.00 L 335.00 388.00 L 331.00 384.00 L 328.00 383.00 L 324.00 384.00 L 320.00 388.00 L 320.00 441.00 L 319.00 442.00 L 191.00 378.00 L 191.00 70.00 L 192.00 69.00 L 320.00 133.00 L 320.00 215.00 L 322.00 218.00 L 327.00 220.00 L 333.00 218.00 L 335.00 215.00 L 335.00 134.00 L 337.00 132.00 L 463.00 69.00 L 464.00 70.00 L 464.00 383.00 L 468.00 387.00 L 475.00 387.00 L 479.00 383.00 L 479.00 53.00 L 476.00 49.00 L 474.00 48.00 L 467.00 49.00 L 327.00 119.00 L 188.00 49.00 L 182.00 48.00 L 35.00 121.00 Z M 175.00 69.00 L 176.00 70.00 L 176.00 377.00 L 174.00 379.00 L 48.00 442.00 L 47.00 441.00 L 47.00 134.00 L 49.00 132.00 Z"/>
</svg>
