<svg xmlns="http://www.w3.org/2000/svg" viewBox="0 0 512 512" role="img" aria-label="total maps">
  <path fill="currentColor" fill-rule="evenodd" clip-rule="evenodd" d="M 60.00 5.00 L 54.00 12.00 L 51.00 20.00 L 51.00 30.00 L 56.00 41.00 L 235.00 256.00 L 56.00 470.00 L 51.00 481.00 L 51.00 491.00 L 56.00 502.00 L 63.00 508.00 L 70.00 511.00 L 441.00 511.00 L 451.00 506.00 L 457.00 499.00 L 460.00 491.00 L 460.00 404.00 L 455.00 393.00 L 448.00 387.00 L 441.00 384.00 L 428.00 384.00 L 423.00 386.00 L 413.00 395.00 L 410.00 401.00 L 410.00 405.00 L 409.00 406.00 L 409.00 459.00 L 408.00 460.00 L 133.00 460.00 L 132.00 459.00 L 291.00 268.00 L 294.00 259.00 L 293.00 248.00 L 289.00 240.00 L 132.00 52.00 L 133.00 51.00 L 408.00 51.00 L 409.00 52.00 L 409.00 105.00 L 413.00 116.00 L 423.00 125.00 L 428.00 127.00 L 441.00 127.00 L 448.00 124.00 L 455.00 118.00 L 460.00 107.00 L 460.00 20.00 L 455.00 9.00 L 448.00 3.00 L 441.00 0.00 L 70.00 0.00 Z"/>
</svg>
